<svg xmlns="http://www.w3.org/2000/svg" width="128" height="128" viewBox="0 0 128 128" role="img" aria-label="relationship.sbs">
  <defs>
    <linearGradient id="g" x1="18" y1="12" x2="110" y2="116" gradientUnits="userSpaceOnUse">
      <stop offset="0" stop-color="#5D7CFF"/>
      <stop offset="0.55" stop-color="#8EA0FF"/>
      <stop offset="1" stop-color="#41D18B"/>
    </linearGradient>
    <filter id="s" x="-20%" y="-20%" width="140%" height="140%">
      <feDropShadow dx="0" dy="10" stdDeviation="10" flood-color="#000" flood-opacity="0.35"/>
    </filter>
  </defs>

  <rect x="10" y="10" width="108" height="108" rx="28" fill="rgba(255,255,255,0.06)" stroke="rgba(255,255,255,0.14)"/>

  <!-- Infinity-heart mark -->
  <path filter="url(#s)" d="M39.5 68.5c-9.2-7.4-10.5-19.7-3.1-27.1 7.3-7.4 19.6-6.1 27 3.1l.6.8.6-.8c7.4-9.2 19.7-10.5 27.1-3.1 7.4 7.3 6.1 19.6-3.1 27.1-8.8 7.1-16.6 13-24.6 20.8-8-7.8-15.8-13.7-24.5-20.8z"
        fill="none" stroke="url(#g)" stroke-width="8" stroke-linecap="round" stroke-linejoin="round"/>

  <!-- Small highlight -->
  <path d="M44 44c4-4.2 9.8-4.8 14.7-.8" fill="none" stroke="rgba(255,255,255,0.55)" stroke-width="4" stroke-linecap="round"/>
</svg>
